<mxfile host="app.diagrams.net" modified="2022-02-01T18:03:03.258Z" agent="5.0 (Windows NT 10.0; Win64; x64) AppleWebKit/537.36 (KHTML, like Gecko) Chrome/97.0.4692.99 Safari/537.36" etag="1tk3i7mbanOwa3Qw3csR" version="16.5.2" type="github">
  <diagram id="p_Kcd28RVoUBO9VoQXsg" name="Page-1">
    <mxGraphModel dx="2591" dy="1613" grid="1" gridSize="10" guides="1" tooltips="1" connect="1" arrows="1" fold="1" page="1" pageScale="1" pageWidth="1169" pageHeight="827" math="0" shadow="0">
      <root>
        <mxCell id="0" />
        <mxCell id="1" parent="0" />
        <mxCell id="7GGsbLNvqj4OGttUeM5T-7" value="" style="group" vertex="1" connectable="0" parent="1">
          <mxGeometry x="-80" y="-720" width="980" height="400" as="geometry" />
        </mxCell>
        <mxCell id="7GGsbLNvqj4OGttUeM5T-3" value="SelfWashSystem.Abstractions" style="shape=module;align=left;spacingLeft=20;align=center;verticalAlign=top;" vertex="1" parent="7GGsbLNvqj4OGttUeM5T-7">
          <mxGeometry width="980" height="400" as="geometry" />
        </mxCell>
        <mxCell id="7GGsbLNvqj4OGttUeM5T-5" value="SelfWashSystem.Abstractions" style="shape=folder;fontStyle=1;spacingTop=10;tabWidth=40;tabHeight=14;tabPosition=left;html=1;align=left;verticalAlign=top;" vertex="1" parent="7GGsbLNvqj4OGttUeM5T-7">
          <mxGeometry x="30" y="33" width="930" height="350" as="geometry" />
        </mxCell>
        <mxCell id="7GGsbLNvqj4OGttUeM5T-8" value="" style="group" vertex="1" connectable="0" parent="1">
          <mxGeometry x="-80" y="-290" width="980" height="400" as="geometry" />
        </mxCell>
        <mxCell id="7GGsbLNvqj4OGttUeM5T-9" value="SelfWashSystem" style="shape=module;align=left;spacingLeft=20;align=center;verticalAlign=top;" vertex="1" parent="7GGsbLNvqj4OGttUeM5T-8">
          <mxGeometry width="980" height="400" as="geometry" />
        </mxCell>
        <mxCell id="7GGsbLNvqj4OGttUeM5T-10" value="SelfWashSystem" style="shape=folder;fontStyle=1;spacingTop=10;tabWidth=40;tabHeight=14;tabPosition=left;html=1;align=left;verticalAlign=top;" vertex="1" parent="7GGsbLNvqj4OGttUeM5T-8">
          <mxGeometry x="30" y="33" width="930" height="350" as="geometry" />
        </mxCell>
      </root>
    </mxGraphModel>
  </diagram>
</mxfile>
